<?xml version="1.0" standalone="no"?>
<!DOCTYPE svg PUBLIC "-//W3C//DTD SVG 1.1//EN" "http://www.w3.org/Graphics/SVG/1.1/DTD/svg11.dtd">
<svg width="12.5in" height="18.2004223683621in" viewBox="0 0 900 1310.43041052207" xmlns="http://www.w3.org/2000/svg" version="1.1">
<desc>Hex grid</desc>
<g id="hexes">
<polygon id="0" style="fill:none;stroke:#000000;stroke-width:2.16px" points="144,62.3538290724796 108.000000074612,124.707658101882 36.0000001492249,124.707658231114 0,62.3538293309447 35.9999997015502,1.72310052448665e-07 107.999999626938,-2.15387579771686e-07"/>
<polygon id="1" style="fill:none;stroke:#000000;stroke-width:2.16px" points="144,187.061487217439 108.000000074612,249.415316246841 36.0000001492249,249.415316376073 0,187.061487475904 35.9999997015502,124.707658317269 107.999999626938,124.707657929572"/>
<polygon id="2" style="fill:none;stroke:#000000;stroke-width:2.16px" points="144,311.769145362398 108.000000074612,374.1229743918 36.0000001492249,374.122974521033 0,311.769145620863 35.9999997015502,249.415316462228 107.999999626938,249.415316074531"/>
<polygon id="3" style="fill:none;stroke:#000000;stroke-width:2.16px" points="144,436.476803507357 108.000000074612,498.830632536759 36.0000001492249,498.830632665992 0,436.476803765822 35.9999997015502,374.122974607188 107.999999626938,374.12297421949"/>
<polygon id="4" style="fill:none;stroke:#000000;stroke-width:2.16px" points="144,561.184461652316 108.000000074612,623.538290681718 36.0000001492249,623.538290810951 0,561.184461910781 35.9999997015502,498.830632752147 107.999999626938,498.830632364449"/>
<polygon id="5" style="fill:none;stroke:#000000;stroke-width:2.16px" points="144,685.892119797275 108.000000074612,748.245948826677 36.0000001492249,748.24594895591 0,685.89212005574 35.9999997015502,623.538290897106 107.999999626938,623.538290509408"/>
<polygon id="6" style="fill:none;stroke:#000000;stroke-width:2.16px" points="144,810.599777942234 108.000000074612,872.953606971637 36.0000001492249,872.953607100869 0,810.5997782007 35.9999997015502,748.245949042065 107.999999626938,748.245948654367"/>
<polygon id="7" style="fill:none;stroke:#000000;stroke-width:2.16px" points="144,935.307436087194 108.000000074612,997.661265116596 36.0000001492249,997.661265245828 0,935.307436345659 35.9999997015502,872.953607187024 107.999999626938,872.953606799327"/>
<polygon id="8" style="fill:none;stroke:#000000;stroke-width:2.16px" points="144,1060.01509423215 108.000000074612,1122.36892326155 36.0000001492249,1122.36892339079 0,1060.01509449062 35.9999997015502,997.661265331983 107.999999626938,997.661264944286"/>
<polygon id="9" style="fill:none;stroke:#000000;stroke-width:2.16px" points="144,1184.72275237711 108.000000074612,1247.07658140651 36.0000001492249,1247.07658153575 0,1184.72275263558 35.9999997015502,1122.36892347694 107.999999626938,1122.36892308924"/>
<polygon id="8" style="fill:none;stroke:#000000;stroke-width:2.16px" points="252,124.707658144959 216.000000074612,187.061487174361 144.000000149225,187.061487303594 108,124.707658403424 143.99999970155,62.3538292447896 215.999999626938,62.353828857092"/>
<polygon id="9" style="fill:none;stroke:#000000;stroke-width:2.16px" points="252,249.415316289918 216.000000074612,311.76914531932 144.000000149225,311.769145448553 108,249.415316548383 143.99999970155,187.061487389749 215.999999626938,187.061487002051"/>
<polygon id="10" style="fill:none;stroke:#000000;stroke-width:2.16px" points="252,374.122974434877 216.000000074612,436.476803464279 144.000000149225,436.476803593512 108,374.122974693343 143.99999970155,311.769145534708 215.999999626938,311.76914514701"/>
<polygon id="11" style="fill:none;stroke:#000000;stroke-width:2.16px" points="252,498.830632579837 216.000000074612,561.184461609239 144.000000149225,561.184461738471 108,498.830632838302 143.99999970155,436.476803679667 215.999999626938,436.476803291969"/>
<polygon id="12" style="fill:none;stroke:#000000;stroke-width:2.16px" points="252,623.538290724796 216.000000074612,685.892119754198 144.000000149225,685.89211988343 108,623.538290983261 143.99999970155,561.184461824626 215.999999626938,561.184461436929"/>
<polygon id="13" style="fill:none;stroke:#000000;stroke-width:2.16px" points="252,748.245948869755 216.000000074612,810.599777899157 144.000000149225,810.59977802839 108,748.24594912822 143.99999970155,685.892119969585 215.999999626938,685.892119581888"/>
<polygon id="14" style="fill:none;stroke:#000000;stroke-width:2.16px" points="252,872.953607014714 216.000000074612,935.307436044116 144.000000149225,935.307436173349 108,872.953607273179 143.99999970155,810.599778114545 215.999999626938,810.599777726847"/>
<polygon id="15" style="fill:none;stroke:#000000;stroke-width:2.16px" points="252,997.661265159673 216.000000074612,1060.01509418908 144.000000149225,1060.01509431831 108,997.661265418138 143.99999970155,935.307436259504 215.999999626938,935.307435871806"/>
<polygon id="16" style="fill:none;stroke:#000000;stroke-width:2.16px" points="252,1122.36892330463 216.000000074612,1184.72275233403 144.000000149225,1184.72275246327 108,1122.3689235631 143.99999970155,1060.01509440446 215.999999626938,1060.01509401677"/>
<polygon id="17" style="fill:none;stroke:#000000;stroke-width:2.16px" points="252,1247.07658144959 216.000000074612,1309.43041047899 144.000000149225,1309.43041060823 108,1247.07658170806 143.99999970155,1184.72275254942 215.999999626938,1184.72275216172"/>
<polygon id="16" style="fill:none;stroke:#000000;stroke-width:2.16px" points="360,62.3538290724796 324.000000074612,124.707658101882 252.000000149225,124.707658231114 216,62.3538293309447 251.99999970155,1.72310052448665e-07 323.999999626938,-2.15387579771686e-07"/>
<polygon id="17" style="fill:none;stroke:#000000;stroke-width:2.16px" points="360,187.061487217439 324.000000074612,249.415316246841 252.000000149225,249.415316376073 216,187.061487475904 251.99999970155,124.707658317269 323.999999626938,124.707657929572"/>
<polygon id="18" style="fill:none;stroke:#000000;stroke-width:2.16px" points="360,311.769145362398 324.000000074612,374.1229743918 252.000000149225,374.122974521033 216,311.769145620863 251.99999970155,249.415316462228 323.999999626938,249.415316074531"/>
<polygon id="19" style="fill:none;stroke:#000000;stroke-width:2.16px" points="360,436.476803507357 324.000000074612,498.830632536759 252.000000149225,498.830632665992 216,436.476803765822 251.99999970155,374.122974607188 323.999999626938,374.12297421949"/>
<polygon id="20" style="fill:none;stroke:#000000;stroke-width:2.16px" points="360,561.184461652316 324.000000074612,623.538290681718 252.000000149225,623.538290810951 216,561.184461910781 251.99999970155,498.830632752147 323.999999626938,498.830632364449"/>
<polygon id="21" style="fill:none;stroke:#000000;stroke-width:2.16px" points="360,685.892119797275 324.000000074612,748.245948826677 252.000000149225,748.24594895591 216,685.89212005574 251.99999970155,623.538290897106 323.999999626938,623.538290509408"/>
<polygon id="22" style="fill:none;stroke:#000000;stroke-width:2.16px" points="360,810.599777942234 324.000000074612,872.953606971637 252.000000149225,872.953607100869 216,810.5997782007 251.99999970155,748.245949042065 323.999999626938,748.245948654367"/>
<polygon id="23" style="fill:none;stroke:#000000;stroke-width:2.16px" points="360,935.307436087194 324.000000074612,997.661265116596 252.000000149225,997.661265245828 216,935.307436345659 251.99999970155,872.953607187024 323.999999626938,872.953606799327"/>
<polygon id="24" style="fill:none;stroke:#000000;stroke-width:2.16px" points="360,1060.01509423215 324.000000074612,1122.36892326155 252.000000149225,1122.36892339079 216,1060.01509449062 251.99999970155,997.661265331983 323.999999626938,997.661264944286"/>
<polygon id="25" style="fill:none;stroke:#000000;stroke-width:2.16px" points="360,1184.72275237711 324.000000074612,1247.07658140651 252.000000149225,1247.07658153575 216,1184.72275263558 251.99999970155,1122.36892347694 323.999999626938,1122.36892308924"/>
<polygon id="24" style="fill:none;stroke:#000000;stroke-width:2.16px" points="468,124.707658144959 432.000000074612,187.061487174361 360.000000149225,187.061487303594 324,124.707658403424 359.99999970155,62.3538292447896 431.999999626938,62.353828857092"/>
<polygon id="25" style="fill:none;stroke:#000000;stroke-width:2.16px" points="468,249.415316289918 432.000000074612,311.76914531932 360.000000149225,311.769145448553 324,249.415316548383 359.99999970155,187.061487389749 431.999999626938,187.061487002051"/>
<polygon id="26" style="fill:none;stroke:#000000;stroke-width:2.16px" points="468,374.122974434877 432.000000074612,436.476803464279 360.000000149225,436.476803593512 324,374.122974693343 359.99999970155,311.769145534708 431.999999626938,311.76914514701"/>
<polygon id="27" style="fill:none;stroke:#000000;stroke-width:2.16px" points="468,498.830632579837 432.000000074612,561.184461609239 360.000000149225,561.184461738471 324,498.830632838302 359.99999970155,436.476803679667 431.999999626938,436.476803291969"/>
<polygon id="28" style="fill:none;stroke:#000000;stroke-width:2.16px" points="468,623.538290724796 432.000000074612,685.892119754198 360.000000149225,685.89211988343 324,623.538290983261 359.99999970155,561.184461824626 431.999999626938,561.184461436929"/>
<polygon id="29" style="fill:none;stroke:#000000;stroke-width:2.16px" points="468,748.245948869755 432.000000074612,810.599777899157 360.000000149225,810.59977802839 324,748.24594912822 359.99999970155,685.892119969585 431.999999626938,685.892119581888"/>
<polygon id="30" style="fill:none;stroke:#000000;stroke-width:2.16px" points="468,872.953607014714 432.000000074612,935.307436044116 360.000000149225,935.307436173349 324,872.953607273179 359.99999970155,810.599778114545 431.999999626938,810.599777726847"/>
<polygon id="31" style="fill:none;stroke:#000000;stroke-width:2.16px" points="468,997.661265159673 432.000000074612,1060.01509418908 360.000000149225,1060.01509431831 324,997.661265418138 359.99999970155,935.307436259504 431.999999626938,935.307435871806"/>
<polygon id="32" style="fill:none;stroke:#000000;stroke-width:2.16px" points="468,1122.36892330463 432.000000074612,1184.72275233403 360.000000149225,1184.72275246327 324,1122.3689235631 359.99999970155,1060.01509440446 431.999999626938,1060.01509401677"/>
<polygon id="33" style="fill:none;stroke:#000000;stroke-width:2.16px" points="468,1247.07658144959 432.000000074612,1309.43041047899 360.000000149225,1309.43041060823 324,1247.07658170806 359.99999970155,1184.72275254942 431.999999626938,1184.72275216172"/>
<polygon id="32" style="fill:none;stroke:#000000;stroke-width:2.16px" points="576,62.3538290724796 540.000000074612,124.707658101882 468.000000149225,124.707658231114 432,62.3538293309447 467.99999970155,1.72310052448665e-07 539.999999626938,-2.15387579771686e-07"/>
<polygon id="33" style="fill:none;stroke:#000000;stroke-width:2.16px" points="576,187.061487217439 540.000000074612,249.415316246841 468.000000149225,249.415316376073 432,187.061487475904 467.99999970155,124.707658317269 539.999999626938,124.707657929572"/>
<polygon id="34" style="fill:none;stroke:#000000;stroke-width:2.16px" points="576,311.769145362398 540.000000074612,374.1229743918 468.000000149225,374.122974521033 432,311.769145620863 467.99999970155,249.415316462228 539.999999626938,249.415316074531"/>
<polygon id="35" style="fill:none;stroke:#000000;stroke-width:2.16px" points="576,436.476803507357 540.000000074612,498.830632536759 468.000000149225,498.830632665992 432,436.476803765822 467.99999970155,374.122974607188 539.999999626938,374.12297421949"/>
<polygon id="36" style="fill:none;stroke:#000000;stroke-width:2.16px" points="576,561.184461652316 540.000000074612,623.538290681718 468.000000149225,623.538290810951 432,561.184461910781 467.99999970155,498.830632752147 539.999999626938,498.830632364449"/>
<polygon id="37" style="fill:none;stroke:#000000;stroke-width:2.16px" points="576,685.892119797275 540.000000074612,748.245948826677 468.000000149225,748.24594895591 432,685.89212005574 467.99999970155,623.538290897106 539.999999626938,623.538290509408"/>
<polygon id="38" style="fill:none;stroke:#000000;stroke-width:2.16px" points="576,810.599777942234 540.000000074612,872.953606971637 468.000000149225,872.953607100869 432,810.5997782007 467.99999970155,748.245949042065 539.999999626938,748.245948654367"/>
<polygon id="39" style="fill:none;stroke:#000000;stroke-width:2.16px" points="576,935.307436087194 540.000000074612,997.661265116596 468.000000149225,997.661265245828 432,935.307436345659 467.99999970155,872.953607187024 539.999999626938,872.953606799327"/>
<polygon id="40" style="fill:none;stroke:#000000;stroke-width:2.16px" points="576,1060.01509423215 540.000000074612,1122.36892326155 468.000000149225,1122.36892339079 432,1060.01509449062 467.99999970155,997.661265331983 539.999999626938,997.661264944286"/>
<polygon id="41" style="fill:none;stroke:#000000;stroke-width:2.16px" points="576,1184.72275237711 540.000000074612,1247.07658140651 468.000000149225,1247.07658153575 432,1184.72275263558 467.99999970155,1122.36892347694 539.999999626938,1122.36892308924"/>
<polygon id="40" style="fill:none;stroke:#000000;stroke-width:2.16px" points="684,124.707658144959 648.000000074612,187.061487174361 576.000000149225,187.061487303594 540,124.707658403424 575.99999970155,62.3538292447896 647.999999626938,62.353828857092"/>
<polygon id="41" style="fill:none;stroke:#000000;stroke-width:2.16px" points="684,249.415316289918 648.000000074612,311.76914531932 576.000000149225,311.769145448553 540,249.415316548383 575.99999970155,187.061487389749 647.999999626938,187.061487002051"/>
<polygon id="42" style="fill:none;stroke:#000000;stroke-width:2.16px" points="684,374.122974434877 648.000000074612,436.476803464279 576.000000149225,436.476803593512 540,374.122974693343 575.99999970155,311.769145534708 647.999999626938,311.76914514701"/>
<polygon id="43" style="fill:none;stroke:#000000;stroke-width:2.16px" points="684,498.830632579837 648.000000074612,561.184461609239 576.000000149225,561.184461738471 540,498.830632838302 575.99999970155,436.476803679667 647.999999626938,436.476803291969"/>
<polygon id="44" style="fill:none;stroke:#000000;stroke-width:2.16px" points="684,623.538290724796 648.000000074612,685.892119754198 576.000000149225,685.89211988343 540,623.538290983261 575.99999970155,561.184461824626 647.999999626938,561.184461436929"/>
<polygon id="45" style="fill:none;stroke:#000000;stroke-width:2.16px" points="684,748.245948869755 648.000000074612,810.599777899157 576.000000149225,810.59977802839 540,748.24594912822 575.99999970155,685.892119969585 647.999999626938,685.892119581888"/>
<polygon id="46" style="fill:none;stroke:#000000;stroke-width:2.16px" points="684,872.953607014714 648.000000074612,935.307436044116 576.000000149225,935.307436173349 540,872.953607273179 575.99999970155,810.599778114545 647.999999626938,810.599777726847"/>
<polygon id="47" style="fill:none;stroke:#000000;stroke-width:2.16px" points="684,997.661265159673 648.000000074612,1060.01509418908 576.000000149225,1060.01509431831 540,997.661265418138 575.99999970155,935.307436259504 647.999999626938,935.307435871806"/>
<polygon id="48" style="fill:none;stroke:#000000;stroke-width:2.16px" points="684,1122.36892330463 648.000000074612,1184.72275233403 576.000000149225,1184.72275246327 540,1122.3689235631 575.99999970155,1060.01509440446 647.999999626938,1060.01509401677"/>
<polygon id="49" style="fill:none;stroke:#000000;stroke-width:2.16px" points="684,1247.07658144959 648.000000074612,1309.43041047899 576.000000149225,1309.43041060823 540,1247.07658170806 575.99999970155,1184.72275254942 647.999999626938,1184.72275216172"/>
<polygon id="48" style="fill:none;stroke:#000000;stroke-width:2.16px" points="792,62.3538290724796 756.000000074612,124.707658101882 684.000000149225,124.707658231114 648,62.3538293309447 683.99999970155,1.72310052448665e-07 755.999999626938,-2.15387579771686e-07"/>
<polygon id="49" style="fill:none;stroke:#000000;stroke-width:2.16px" points="792,187.061487217439 756.000000074612,249.415316246841 684.000000149225,249.415316376073 648,187.061487475904 683.99999970155,124.707658317269 755.999999626938,124.707657929572"/>
<polygon id="50" style="fill:none;stroke:#000000;stroke-width:2.16px" points="792,311.769145362398 756.000000074612,374.1229743918 684.000000149225,374.122974521033 648,311.769145620863 683.99999970155,249.415316462228 755.999999626938,249.415316074531"/>
<polygon id="51" style="fill:none;stroke:#000000;stroke-width:2.16px" points="792,436.476803507357 756.000000074612,498.830632536759 684.000000149225,498.830632665992 648,436.476803765822 683.99999970155,374.122974607188 755.999999626938,374.12297421949"/>
<polygon id="52" style="fill:none;stroke:#000000;stroke-width:2.16px" points="792,561.184461652316 756.000000074612,623.538290681718 684.000000149225,623.538290810951 648,561.184461910781 683.99999970155,498.830632752147 755.999999626938,498.830632364449"/>
<polygon id="53" style="fill:none;stroke:#000000;stroke-width:2.16px" points="792,685.892119797275 756.000000074612,748.245948826677 684.000000149225,748.24594895591 648,685.89212005574 683.99999970155,623.538290897106 755.999999626938,623.538290509408"/>
<polygon id="54" style="fill:none;stroke:#000000;stroke-width:2.16px" points="792,810.599777942234 756.000000074612,872.953606971637 684.000000149225,872.953607100869 648,810.5997782007 683.99999970155,748.245949042065 755.999999626938,748.245948654367"/>
<polygon id="55" style="fill:none;stroke:#000000;stroke-width:2.16px" points="792,935.307436087194 756.000000074612,997.661265116596 684.000000149225,997.661265245828 648,935.307436345659 683.99999970155,872.953607187024 755.999999626938,872.953606799327"/>
<polygon id="56" style="fill:none;stroke:#000000;stroke-width:2.16px" points="792,1060.01509423215 756.000000074612,1122.36892326155 684.000000149225,1122.36892339079 648,1060.01509449062 683.99999970155,997.661265331983 755.999999626938,997.661264944286"/>
<polygon id="57" style="fill:none;stroke:#000000;stroke-width:2.16px" points="792,1184.72275237711 756.000000074612,1247.07658140651 684.000000149225,1247.07658153575 648,1184.72275263558 683.99999970155,1122.36892347694 755.999999626938,1122.36892308924"/>
<polygon id="56" style="fill:none;stroke:#000000;stroke-width:2.16px" points="900,124.707658144959 864.000000074612,187.061487174361 792.000000149225,187.061487303594 756,124.707658403424 791.99999970155,62.3538292447896 863.999999626938,62.353828857092"/>
<polygon id="57" style="fill:none;stroke:#000000;stroke-width:2.16px" points="900,249.415316289918 864.000000074612,311.76914531932 792.000000149225,311.769145448553 756,249.415316548383 791.99999970155,187.061487389749 863.999999626938,187.061487002051"/>
<polygon id="58" style="fill:none;stroke:#000000;stroke-width:2.16px" points="900,374.122974434877 864.000000074612,436.476803464279 792.000000149225,436.476803593512 756,374.122974693343 791.99999970155,311.769145534708 863.999999626938,311.76914514701"/>
<polygon id="59" style="fill:none;stroke:#000000;stroke-width:2.16px" points="900,498.830632579837 864.000000074612,561.184461609239 792.000000149225,561.184461738471 756,498.830632838302 791.99999970155,436.476803679667 863.999999626938,436.476803291969"/>
<polygon id="60" style="fill:none;stroke:#000000;stroke-width:2.16px" points="900,623.538290724796 864.000000074612,685.892119754198 792.000000149225,685.89211988343 756,623.538290983261 791.99999970155,561.184461824626 863.999999626938,561.184461436929"/>
<polygon id="61" style="fill:none;stroke:#000000;stroke-width:2.16px" points="900,748.245948869755 864.000000074612,810.599777899157 792.000000149225,810.59977802839 756,748.24594912822 791.99999970155,685.892119969585 863.999999626938,685.892119581888"/>
<polygon id="62" style="fill:none;stroke:#000000;stroke-width:2.16px" points="900,872.953607014714 864.000000074612,935.307436044116 792.000000149225,935.307436173349 756,872.953607273179 791.99999970155,810.599778114545 863.999999626938,810.599777726847"/>
<polygon id="63" style="fill:none;stroke:#000000;stroke-width:2.16px" points="900,997.661265159673 864.000000074612,1060.01509418908 792.000000149225,1060.01509431831 756,997.661265418138 791.99999970155,935.307436259504 863.999999626938,935.307435871806"/>
<polygon id="64" style="fill:none;stroke:#000000;stroke-width:2.16px" points="900,1122.36892330463 864.000000074612,1184.72275233403 792.000000149225,1184.72275246327 756,1122.3689235631 791.99999970155,1060.01509440446 863.999999626938,1060.01509401677"/>
<polygon id="65" style="fill:none;stroke:#000000;stroke-width:2.16px" points="900,1247.07658144959 864.000000074612,1309.43041047899 792.000000149225,1309.43041060823 756,1247.07658170806 791.99999970155,1184.72275254942 863.999999626938,1184.72275216172"/>
</g>
</svg>
